<mxfile host="app.diagrams.net" modified="2022-02-04T12:46:53.007Z" agent="5.0 (Windows NT 10.0; Win64; x64) AppleWebKit/537.36 (KHTML, like Gecko) Chrome/97.0.4692.99 Safari/537.36 Edg/97.0.1072.76" etag="5gDicW-Ft2kLBGgOGxpw" version="16.5.3" type="github" pages="4">
  <diagram name="page-0" id="DgpQU_5o6dQfhRjZDWB3">
    <mxGraphModel dx="1290" dy="882" grid="1" gridSize="10" guides="1" tooltips="1" connect="1" arrows="1" fold="1" page="1" pageScale="1" pageWidth="1100" pageHeight="850" background="none" math="0" shadow="0">
      <root>
        <mxCell id="qD_JSSgiLe47YjnPIYBm-0" />
        <mxCell id="qD_JSSgiLe47YjnPIYBm-1" parent="qD_JSSgiLe47YjnPIYBm-0" />
        <mxCell id="qD_JSSgiLe47YjnPIYBm-2" value="LOGO(login)" style="whiteSpace=wrap;html=1;rounded=0;shadow=0;labelBackgroundColor=none;strokeWidth=1;fontFamily=Verdana;fontSize=28;align=center;comic=1;" vertex="1" parent="qD_JSSgiLe47YjnPIYBm-1">
          <mxGeometry x="465" y="450" width="190" height="50" as="geometry" />
        </mxCell>
        <mxCell id="qD_JSSgiLe47YjnPIYBm-3" value="Username" style="strokeWidth=1;shadow=0;dashed=0;align=center;html=1;shape=mxgraph.mockup.forms.searchBox;strokeColor=#999999;mainText=;strokeColor2=#008cff;fontColor=#666666;fontSize=17;align=left;spacingLeft=3;rounded=0;labelBackgroundColor=none;comic=1;" vertex="1" parent="qD_JSSgiLe47YjnPIYBm-1">
          <mxGeometry x="450" y="220" width="220" height="30" as="geometry" />
        </mxCell>
        <mxCell id="qD_JSSgiLe47YjnPIYBm-17" value="Password" style="strokeWidth=1;shadow=0;dashed=0;align=center;html=1;shape=mxgraph.mockup.forms.searchBox;strokeColor=#999999;mainText=;strokeColor2=#008cff;fontColor=#666666;fontSize=17;align=left;spacingLeft=3;rounded=0;labelBackgroundColor=none;comic=1;" vertex="1" parent="qD_JSSgiLe47YjnPIYBm-1">
          <mxGeometry x="450" y="340" width="220" height="30" as="geometry" />
        </mxCell>
      </root>
    </mxGraphModel>
  </diagram>
  <diagram name="Page-1" id="03018318-947c-dd8e-b7a3-06fadd420f32">
    <mxGraphModel dx="1290" dy="882" grid="1" gridSize="10" guides="1" tooltips="1" connect="1" arrows="1" fold="1" page="1" pageScale="1" pageWidth="1100" pageHeight="850" background="none" math="0" shadow="0">
      <root>
        <mxCell id="0" />
        <mxCell id="1" parent="0" />
        <mxCell id="677b7b8949515195-2" value="LOGO" style="whiteSpace=wrap;html=1;rounded=0;shadow=0;labelBackgroundColor=none;strokeWidth=1;fontFamily=Verdana;fontSize=28;align=center;comic=1;" parent="1" vertex="1">
          <mxGeometry x="450" y="40" width="190" height="50" as="geometry" />
        </mxCell>
        <mxCell id="677b7b8949515195-3" value="Search" style="strokeWidth=1;shadow=0;dashed=0;align=center;html=1;shape=mxgraph.mockup.forms.searchBox;strokeColor=#999999;mainText=;strokeColor2=#008cff;fontColor=#666666;fontSize=17;align=left;spacingLeft=3;rounded=0;labelBackgroundColor=none;comic=1;" parent="1" vertex="1">
          <mxGeometry x="450" y="190" width="220" height="30" as="geometry" />
        </mxCell>
        <mxCell id="677b7b8949515195-9" value="" style="line;strokeWidth=1;html=1;rounded=0;shadow=0;labelBackgroundColor=none;fillColor=none;fontFamily=Verdana;fontSize=14;fontColor=#000000;align=center;comic=1;" parent="1" vertex="1">
          <mxGeometry x="20" y="140" width="1060" height="70" as="geometry" />
        </mxCell>
        <mxCell id="677b7b8949515195-13" value="Logout" style="text;html=1;points=[];align=left;verticalAlign=top;spacingTop=-4;fontSize=14;fontFamily=Verdana" parent="1" vertex="1">
          <mxGeometry x="565" y="120" width="60" height="20" as="geometry" />
        </mxCell>
        <mxCell id="677b7b8949515195-14" value="My stat" style="text;html=1;points=[];align=left;verticalAlign=top;spacingTop=-4;fontSize=14;fontFamily=Verdana" parent="1" vertex="1">
          <mxGeometry x="675" y="120" width="60" height="20" as="geometry" />
        </mxCell>
        <mxCell id="677b7b8949515195-16" value="" style="verticalLabelPosition=bottom;shadow=0;dashed=0;align=center;html=1;verticalAlign=top;strokeWidth=1;shape=mxgraph.mockup.graphics.simpleIcon;strokeColor=#999999;rounded=0;labelBackgroundColor=none;fontFamily=Verdana;fontSize=14;fontColor=#000000;comic=1;" parent="1" vertex="1">
          <mxGeometry x="250" y="230" width="140" height="130" as="geometry" />
        </mxCell>
        <mxCell id="oLLse3DGFvMIfHfWoFh4-2" value="Profile" style="text;html=1;points=[];align=left;verticalAlign=top;spacingTop=-4;fontSize=14;fontFamily=Verdana" vertex="1" parent="1">
          <mxGeometry x="785" y="120" width="60" height="20" as="geometry" />
        </mxCell>
        <mxCell id="oLLse3DGFvMIfHfWoFh4-3" value="" style="verticalLabelPosition=bottom;shadow=0;dashed=0;align=center;html=1;verticalAlign=top;strokeWidth=1;shape=mxgraph.mockup.graphics.simpleIcon;strokeColor=#999999;rounded=0;labelBackgroundColor=none;fontFamily=Verdana;fontSize=14;fontColor=#000000;comic=1;" vertex="1" parent="1">
          <mxGeometry x="440" y="231" width="140" height="130" as="geometry" />
        </mxCell>
        <mxCell id="oLLse3DGFvMIfHfWoFh4-4" value="" style="verticalLabelPosition=bottom;shadow=0;dashed=0;align=center;html=1;verticalAlign=top;strokeWidth=1;shape=mxgraph.mockup.graphics.simpleIcon;strokeColor=#999999;rounded=0;labelBackgroundColor=none;fontFamily=Verdana;fontSize=14;fontColor=#000000;comic=1;" vertex="1" parent="1">
          <mxGeometry x="630" y="230" width="140" height="130" as="geometry" />
        </mxCell>
        <mxCell id="oLLse3DGFvMIfHfWoFh4-5" value="" style="verticalLabelPosition=bottom;shadow=0;dashed=0;align=center;html=1;verticalAlign=top;strokeWidth=1;shape=mxgraph.mockup.graphics.simpleIcon;strokeColor=#999999;rounded=0;labelBackgroundColor=none;fontFamily=Verdana;fontSize=14;fontColor=#000000;comic=1;" vertex="1" parent="1">
          <mxGeometry x="450" y="406" width="140" height="130" as="geometry" />
        </mxCell>
        <mxCell id="oLLse3DGFvMIfHfWoFh4-6" value="" style="verticalLabelPosition=bottom;shadow=0;dashed=0;align=center;html=1;verticalAlign=top;strokeWidth=1;shape=mxgraph.mockup.graphics.simpleIcon;strokeColor=#999999;rounded=0;labelBackgroundColor=none;fontFamily=Verdana;fontSize=14;fontColor=#000000;comic=1;" vertex="1" parent="1">
          <mxGeometry x="250" y="409" width="140" height="130" as="geometry" />
        </mxCell>
        <mxCell id="oLLse3DGFvMIfHfWoFh4-7" value="" style="verticalLabelPosition=bottom;shadow=0;dashed=0;align=center;html=1;verticalAlign=top;strokeWidth=1;shape=mxgraph.mockup.graphics.simpleIcon;strokeColor=#999999;rounded=0;labelBackgroundColor=none;fontFamily=Verdana;fontSize=14;fontColor=#000000;comic=1;" vertex="1" parent="1">
          <mxGeometry x="640" y="411" width="140" height="130" as="geometry" />
        </mxCell>
        <mxCell id="oLLse3DGFvMIfHfWoFh4-10" value="My Repositories" style="text;html=1;points=[];align=left;verticalAlign=top;spacingTop=-4;fontSize=14;fontFamily=Verdana" vertex="1" parent="1">
          <mxGeometry x="275" y="120" width="60" height="20" as="geometry" />
        </mxCell>
        <mxCell id="oLLse3DGFvMIfHfWoFh4-11" value="Find repositories" style="text;html=1;points=[];align=left;verticalAlign=top;spacingTop=-4;fontSize=14;fontFamily=Verdana" vertex="1" parent="1">
          <mxGeometry x="415" y="120" width="60" height="20" as="geometry" />
        </mxCell>
      </root>
    </mxGraphModel>
  </diagram>
  <diagram name="Page -2" id="hL8HClCgPLRcQbwxEeYj">
    <mxGraphModel dx="1290" dy="882" grid="1" gridSize="10" guides="1" tooltips="1" connect="1" arrows="1" fold="1" page="1" pageScale="1" pageWidth="1100" pageHeight="850" background="none" math="0" shadow="0">
      <root>
        <mxCell id="_f9O5eJKwNrx-BWGJlD9-0" />
        <mxCell id="_f9O5eJKwNrx-BWGJlD9-1" parent="_f9O5eJKwNrx-BWGJlD9-0" />
        <mxCell id="_f9O5eJKwNrx-BWGJlD9-2" value="LOGO" style="whiteSpace=wrap;html=1;rounded=0;shadow=0;labelBackgroundColor=none;strokeWidth=1;fontFamily=Verdana;fontSize=28;align=center;comic=1;" vertex="1" parent="_f9O5eJKwNrx-BWGJlD9-1">
          <mxGeometry x="435" y="30" width="190" height="50" as="geometry" />
        </mxCell>
        <mxCell id="_f9O5eJKwNrx-BWGJlD9-4" value="" style="line;strokeWidth=1;html=1;rounded=0;shadow=0;labelBackgroundColor=none;fillColor=none;fontFamily=Verdana;fontSize=14;fontColor=#000000;align=center;comic=1;" vertex="1" parent="_f9O5eJKwNrx-BWGJlD9-1">
          <mxGeometry x="20" y="140" width="1060" height="70" as="geometry" />
        </mxCell>
        <mxCell id="_f9O5eJKwNrx-BWGJlD9-5" value="Logout" style="text;html=1;points=[];align=left;verticalAlign=top;spacingTop=-4;fontSize=14;fontFamily=Verdana" vertex="1" parent="_f9O5eJKwNrx-BWGJlD9-1">
          <mxGeometry x="565" y="120" width="60" height="20" as="geometry" />
        </mxCell>
        <mxCell id="_f9O5eJKwNrx-BWGJlD9-6" value="My stat" style="text;html=1;points=[];align=left;verticalAlign=top;spacingTop=-4;fontSize=14;fontFamily=Verdana" vertex="1" parent="_f9O5eJKwNrx-BWGJlD9-1">
          <mxGeometry x="675" y="120" width="60" height="20" as="geometry" />
        </mxCell>
        <mxCell id="_f9O5eJKwNrx-BWGJlD9-7" value="" style="verticalLabelPosition=bottom;shadow=0;dashed=0;align=center;html=1;verticalAlign=top;strokeWidth=1;shape=mxgraph.mockup.graphics.simpleIcon;strokeColor=#999999;rounded=0;labelBackgroundColor=none;fontFamily=Verdana;fontSize=14;fontColor=#000000;comic=1;" vertex="1" parent="_f9O5eJKwNrx-BWGJlD9-1">
          <mxGeometry x="210" y="295" width="140" height="130" as="geometry" />
        </mxCell>
        <mxCell id="_f9O5eJKwNrx-BWGJlD9-8" value="Profile" style="text;html=1;points=[];align=left;verticalAlign=top;spacingTop=-4;fontSize=14;fontFamily=Verdana" vertex="1" parent="_f9O5eJKwNrx-BWGJlD9-1">
          <mxGeometry x="785" y="120" width="60" height="20" as="geometry" />
        </mxCell>
        <mxCell id="_f9O5eJKwNrx-BWGJlD9-9" value="This stat from API" style="verticalLabelPosition=bottom;shadow=0;dashed=0;align=center;html=1;verticalAlign=top;strokeWidth=1;shape=mxgraph.mockup.graphics.simpleIcon;strokeColor=#999999;rounded=0;labelBackgroundColor=none;fontFamily=Verdana;fontSize=14;fontColor=#000000;comic=1;" vertex="1" parent="_f9O5eJKwNrx-BWGJlD9-1">
          <mxGeometry x="430" y="295" width="140" height="130" as="geometry" />
        </mxCell>
        <mxCell id="_f9O5eJKwNrx-BWGJlD9-10" value="" style="verticalLabelPosition=bottom;shadow=0;dashed=0;align=center;html=1;verticalAlign=top;strokeWidth=1;shape=mxgraph.mockup.graphics.simpleIcon;strokeColor=#999999;rounded=0;labelBackgroundColor=none;fontFamily=Verdana;fontSize=14;fontColor=#000000;comic=1;" vertex="1" parent="_f9O5eJKwNrx-BWGJlD9-1">
          <mxGeometry x="675" y="295" width="140" height="130" as="geometry" />
        </mxCell>
        <mxCell id="_f9O5eJKwNrx-BWGJlD9-11" value="" style="verticalLabelPosition=bottom;shadow=0;dashed=0;align=center;html=1;verticalAlign=top;strokeWidth=1;shape=mxgraph.mockup.graphics.simpleIcon;strokeColor=#999999;rounded=0;labelBackgroundColor=none;fontFamily=Verdana;fontSize=14;fontColor=#000000;comic=1;" vertex="1" parent="_f9O5eJKwNrx-BWGJlD9-1">
          <mxGeometry x="430" y="510" width="140" height="130" as="geometry" />
        </mxCell>
        <mxCell id="_f9O5eJKwNrx-BWGJlD9-12" value="" style="verticalLabelPosition=bottom;shadow=0;dashed=0;align=center;html=1;verticalAlign=top;strokeWidth=1;shape=mxgraph.mockup.graphics.simpleIcon;strokeColor=#999999;rounded=0;labelBackgroundColor=none;fontFamily=Verdana;fontSize=14;fontColor=#000000;comic=1;" vertex="1" parent="_f9O5eJKwNrx-BWGJlD9-1">
          <mxGeometry x="195" y="520" width="140" height="130" as="geometry" />
        </mxCell>
        <mxCell id="_f9O5eJKwNrx-BWGJlD9-13" value="" style="verticalLabelPosition=bottom;shadow=0;dashed=0;align=center;html=1;verticalAlign=top;strokeWidth=1;shape=mxgraph.mockup.graphics.simpleIcon;strokeColor=#999999;rounded=0;labelBackgroundColor=none;fontFamily=Verdana;fontSize=14;fontColor=#000000;comic=1;" vertex="1" parent="_f9O5eJKwNrx-BWGJlD9-1">
          <mxGeometry x="670" y="510" width="140" height="130" as="geometry" />
        </mxCell>
        <mxCell id="_f9O5eJKwNrx-BWGJlD9-14" value="My Repositories" style="text;html=1;points=[];align=left;verticalAlign=top;spacingTop=-4;fontSize=14;fontFamily=Verdana" vertex="1" parent="_f9O5eJKwNrx-BWGJlD9-1">
          <mxGeometry x="275" y="120" width="60" height="20" as="geometry" />
        </mxCell>
        <mxCell id="_f9O5eJKwNrx-BWGJlD9-15" value="Find repositories" style="text;html=1;points=[];align=left;verticalAlign=top;spacingTop=-4;fontSize=14;fontFamily=Verdana" vertex="1" parent="_f9O5eJKwNrx-BWGJlD9-1">
          <mxGeometry x="415" y="120" width="60" height="20" as="geometry" />
        </mxCell>
        <mxCell id="cUDAsYis_ilkkzuzT334-0" value="Name of the repository" style="text;html=1;points=[];align=left;verticalAlign=top;spacingTop=-4;fontSize=14;fontFamily=Verdana" vertex="1" parent="_f9O5eJKwNrx-BWGJlD9-1">
          <mxGeometry x="470" y="230" width="60" height="20" as="geometry" />
        </mxCell>
        <mxCell id="cUDAsYis_ilkkzuzT334-4" value="" style="shape=flexArrow;endArrow=classic;html=1;rounded=0;" edge="1" parent="_f9O5eJKwNrx-BWGJlD9-1">
          <mxGeometry width="50" height="50" relative="1" as="geometry">
            <mxPoint x="110" y="220" as="sourcePoint" />
            <mxPoint x="40" y="220" as="targetPoint" />
          </mxGeometry>
        </mxCell>
      </root>
    </mxGraphModel>
  </diagram>
  <diagram name="Page-3" id="3w_mdMQx02ED5VIUz_LC">
    <mxGraphModel dx="1290" dy="882" grid="1" gridSize="10" guides="1" tooltips="1" connect="1" arrows="1" fold="1" page="1" pageScale="1" pageWidth="1100" pageHeight="850" background="none" math="0" shadow="0">
      <root>
        <mxCell id="RC_PH-SbwwCIaF8CPwy_-0" />
        <mxCell id="RC_PH-SbwwCIaF8CPwy_-1" parent="RC_PH-SbwwCIaF8CPwy_-0" />
        <mxCell id="RC_PH-SbwwCIaF8CPwy_-2" value="LOGO" style="whiteSpace=wrap;html=1;rounded=0;shadow=0;labelBackgroundColor=none;strokeWidth=1;fontFamily=Verdana;fontSize=28;align=center;comic=1;" vertex="1" parent="RC_PH-SbwwCIaF8CPwy_-1">
          <mxGeometry x="435" y="30" width="190" height="50" as="geometry" />
        </mxCell>
        <mxCell id="RC_PH-SbwwCIaF8CPwy_-3" value="" style="line;strokeWidth=1;html=1;rounded=0;shadow=0;labelBackgroundColor=none;fillColor=none;fontFamily=Verdana;fontSize=14;fontColor=#000000;align=center;comic=1;" vertex="1" parent="RC_PH-SbwwCIaF8CPwy_-1">
          <mxGeometry x="20" y="140" width="1060" height="70" as="geometry" />
        </mxCell>
        <mxCell id="RC_PH-SbwwCIaF8CPwy_-4" value="Logout" style="text;html=1;points=[];align=left;verticalAlign=top;spacingTop=-4;fontSize=14;fontFamily=Verdana" vertex="1" parent="RC_PH-SbwwCIaF8CPwy_-1">
          <mxGeometry x="565" y="120" width="60" height="20" as="geometry" />
        </mxCell>
        <mxCell id="RC_PH-SbwwCIaF8CPwy_-5" value="My stat" style="text;html=1;points=[];align=left;verticalAlign=top;spacingTop=-4;fontSize=14;fontFamily=Verdana" vertex="1" parent="RC_PH-SbwwCIaF8CPwy_-1">
          <mxGeometry x="675" y="120" width="60" height="20" as="geometry" />
        </mxCell>
        <mxCell id="RC_PH-SbwwCIaF8CPwy_-7" value="Profile" style="text;html=1;points=[];align=left;verticalAlign=top;spacingTop=-4;fontSize=14;fontFamily=Verdana" vertex="1" parent="RC_PH-SbwwCIaF8CPwy_-1">
          <mxGeometry x="785" y="120" width="60" height="20" as="geometry" />
        </mxCell>
        <mxCell id="RC_PH-SbwwCIaF8CPwy_-13" value="My Repositories" style="text;html=1;points=[];align=left;verticalAlign=top;spacingTop=-4;fontSize=14;fontFamily=Verdana" vertex="1" parent="RC_PH-SbwwCIaF8CPwy_-1">
          <mxGeometry x="275" y="120" width="60" height="20" as="geometry" />
        </mxCell>
        <mxCell id="RC_PH-SbwwCIaF8CPwy_-14" value="Find repositories" style="text;html=1;points=[];align=left;verticalAlign=top;spacingTop=-4;fontSize=14;fontFamily=Verdana" vertex="1" parent="RC_PH-SbwwCIaF8CPwy_-1">
          <mxGeometry x="415" y="120" width="60" height="20" as="geometry" />
        </mxCell>
        <mxCell id="RC_PH-SbwwCIaF8CPwy_-15" value="Name of the repository" style="text;html=1;points=[];align=left;verticalAlign=top;spacingTop=-4;fontSize=14;fontFamily=Verdana" vertex="1" parent="RC_PH-SbwwCIaF8CPwy_-1">
          <mxGeometry x="470" y="230" width="60" height="20" as="geometry" />
        </mxCell>
        <mxCell id="RC_PH-SbwwCIaF8CPwy_-16" value="" style="shape=flexArrow;endArrow=classic;html=1;rounded=0;" edge="1" parent="RC_PH-SbwwCIaF8CPwy_-1">
          <mxGeometry width="50" height="50" relative="1" as="geometry">
            <mxPoint x="110" y="220" as="sourcePoint" />
            <mxPoint x="40" y="220" as="targetPoint" />
          </mxGeometry>
        </mxCell>
        <mxCell id="RC_PH-SbwwCIaF8CPwy_-19" value="&lt;table border=&quot;1&quot; width=&quot;100%&quot; cellpadding=&quot;4&quot; style=&quot;width: 100% ; height: 100% ; border-collapse: collapse&quot;&gt;&lt;tbody&gt;&lt;tr style=&quot;background-color: #a7c942 ; color: #ffffff ; border: 1px solid #98bf21&quot;&gt;&lt;th align=&quot;left&quot;&gt;Repositories&lt;/th&gt;&lt;th align=&quot;left&quot;&gt;Option1&lt;/th&gt;&lt;th align=&quot;left&quot;&gt;Option2&lt;/th&gt;&lt;/tr&gt;&lt;tr style=&quot;border: 1px solid #98bf21&quot;&gt;&lt;td&gt;Repo 1&lt;/td&gt;&lt;td&gt;&lt;br&gt;&lt;/td&gt;&lt;td&gt;&lt;br&gt;&lt;/td&gt;&lt;/tr&gt;&lt;tr style=&quot;background-color: #eaf2d3 ; border: 1px solid #98bf21&quot;&gt;&lt;td&gt;Repo 2&lt;/td&gt;&lt;td&gt;&lt;br&gt;&lt;/td&gt;&lt;td&gt;&lt;br&gt;&lt;/td&gt;&lt;/tr&gt;&lt;tr style=&quot;border: 1px solid #98bf21&quot;&gt;&lt;td&gt;Repo 3&lt;/td&gt;&lt;td&gt;&lt;br&gt;&lt;/td&gt;&lt;td&gt;&lt;br&gt;&lt;/td&gt;&lt;/tr&gt;&lt;tr style=&quot;background-color: #eaf2d3 ; border: 1px solid #98bf21&quot;&gt;&lt;td&gt;Repo 4&lt;/td&gt;&lt;td&gt;&lt;br&gt;&lt;/td&gt;&lt;td&gt;&lt;br&gt;&lt;/td&gt;&lt;/tr&gt;&lt;/tbody&gt;&lt;/table&gt;" style="text;html=1;strokeColor=#c0c0c0;fillColor=#ffffff;overflow=fill;rounded=0;" vertex="1" parent="RC_PH-SbwwCIaF8CPwy_-1">
          <mxGeometry x="180" y="345" width="280" height="160" as="geometry" />
        </mxCell>
        <mxCell id="RC_PH-SbwwCIaF8CPwy_-20" value="" style="whiteSpace=wrap;html=1;aspect=fixed;fillColor=none;" vertex="1" parent="RC_PH-SbwwCIaF8CPwy_-1">
          <mxGeometry x="410" y="380" width="20" height="20" as="geometry" />
        </mxCell>
        <mxCell id="RC_PH-SbwwCIaF8CPwy_-21" value="" style="whiteSpace=wrap;html=1;aspect=fixed;fillColor=none;" vertex="1" parent="RC_PH-SbwwCIaF8CPwy_-1">
          <mxGeometry x="330" y="380" width="20" height="20" as="geometry" />
        </mxCell>
        <mxCell id="RC_PH-SbwwCIaF8CPwy_-22" value="" style="whiteSpace=wrap;html=1;aspect=fixed;fillColor=none;" vertex="1" parent="RC_PH-SbwwCIaF8CPwy_-1">
          <mxGeometry x="330" y="480" width="20" height="20" as="geometry" />
        </mxCell>
        <mxCell id="RC_PH-SbwwCIaF8CPwy_-23" value="" style="whiteSpace=wrap;html=1;aspect=fixed;fillColor=none;" vertex="1" parent="RC_PH-SbwwCIaF8CPwy_-1">
          <mxGeometry x="330" y="450" width="20" height="20" as="geometry" />
        </mxCell>
        <mxCell id="RC_PH-SbwwCIaF8CPwy_-24" value="" style="whiteSpace=wrap;html=1;aspect=fixed;fillColor=none;" vertex="1" parent="RC_PH-SbwwCIaF8CPwy_-1">
          <mxGeometry x="330" y="415" width="20" height="20" as="geometry" />
        </mxCell>
        <mxCell id="RC_PH-SbwwCIaF8CPwy_-27" value="" style="whiteSpace=wrap;html=1;aspect=fixed;fillColor=none;" vertex="1" parent="RC_PH-SbwwCIaF8CPwy_-1">
          <mxGeometry x="410" y="415" width="20" height="20" as="geometry" />
        </mxCell>
        <mxCell id="RC_PH-SbwwCIaF8CPwy_-28" value="" style="whiteSpace=wrap;html=1;aspect=fixed;fillColor=none;" vertex="1" parent="RC_PH-SbwwCIaF8CPwy_-1">
          <mxGeometry x="410" y="450" width="20" height="20" as="geometry" />
        </mxCell>
        <mxCell id="RC_PH-SbwwCIaF8CPwy_-29" value="" style="whiteSpace=wrap;html=1;aspect=fixed;fillColor=none;" vertex="1" parent="RC_PH-SbwwCIaF8CPwy_-1">
          <mxGeometry x="410" y="480" width="20" height="20" as="geometry" />
        </mxCell>
      </root>
    </mxGraphModel>
  </diagram>
</mxfile>
